G75*
G70*
%OFA0B0*%
%FSLAX24Y24*%
%IPPOS*%
%LPD*%
%AMOC8*
5,1,8,0,0,1.08239X$1,22.5*
%
%ADD10R,0.0780X0.0730*%
%ADD11R,0.1041X0.0525*%
%ADD12OC8,0.0820*%
%ADD13C,0.0880*%
%ADD14C,0.0880*%
%ADD15OC8,0.0930*%
%ADD16C,0.1380*%
%ADD17R,0.0556X0.0556*%
D10*
X005950Y001700D03*
X005950Y002700D03*
X005950Y003700D03*
X005950Y004700D03*
X005950Y005700D03*
X005950Y006700D03*
X005950Y007700D03*
X005950Y008700D03*
X005950Y009700D03*
X005950Y010700D03*
X005950Y011700D03*
X005950Y012700D03*
X005950Y013700D03*
X005950Y014700D03*
X012050Y014700D03*
X012050Y013700D03*
X012050Y012700D03*
X012050Y011700D03*
X012050Y010700D03*
X012050Y009700D03*
X012050Y008700D03*
X012050Y007700D03*
X012050Y006700D03*
X012050Y005700D03*
X012050Y004700D03*
X012050Y003700D03*
X012050Y002700D03*
X012050Y001700D03*
D11*
X013407Y001700D03*
X013407Y002700D03*
X013407Y003700D03*
X013407Y004700D03*
X013407Y005700D03*
X013407Y006700D03*
X013407Y007700D03*
X013407Y008700D03*
X013407Y009700D03*
X013407Y010700D03*
X016793Y010700D03*
X016793Y009700D03*
X016793Y008700D03*
X016793Y007700D03*
X016793Y006700D03*
X016793Y005700D03*
X016793Y004700D03*
X016793Y003700D03*
X016793Y002700D03*
X016793Y001700D03*
D12*
X003650Y007700D03*
X003650Y008700D03*
X003650Y009700D03*
X003650Y010700D03*
X003650Y011700D03*
X002550Y011700D03*
X002550Y010700D03*
X002550Y009700D03*
X002550Y008700D03*
X002550Y007700D03*
D13*
X014800Y014700D03*
D14*
X014200Y015700D02*
X013400Y015700D01*
X015400Y015700D02*
X016200Y015700D01*
X016200Y013700D02*
X015400Y013700D01*
X014200Y013700D02*
X013400Y013700D01*
D15*
X013200Y011700D03*
X005000Y004500D03*
X004000Y005200D03*
D16*
X001600Y001600D03*
X001600Y016100D03*
D17*
X005000Y011700D03*
M02*
