G75*
G70*
%OFA0B0*%
%FSLAX24Y24*%
%IPPOS*%
%LPD*%
%AMOC8*
5,1,8,0,0,1.08239X$1,22.5*
%
%ADD10OC8,0.0740*%
%ADD11C,0.0800*%
%ADD12C,0.0800*%
%ADD13OC8,0.0850*%
%ADD14R,0.0476X0.0476*%
%ADD15C,0.0160*%
D10*
X002550Y007700D03*
X002550Y008700D03*
X002550Y009700D03*
X002550Y010700D03*
X002550Y011700D03*
X003650Y011700D03*
X003650Y010700D03*
X003650Y009700D03*
X003650Y008700D03*
X003650Y007700D03*
D11*
X014800Y014700D03*
D12*
X014200Y015700D02*
X013400Y015700D01*
X015400Y015700D02*
X016200Y015700D01*
X016200Y013700D02*
X015400Y013700D01*
X014200Y013700D02*
X013400Y013700D01*
D13*
X013200Y011700D03*
X005000Y004500D03*
X004000Y005200D03*
D14*
X005000Y011700D03*
D15*
X002800Y002800D02*
X002800Y000400D01*
X017300Y000400D01*
X017300Y017300D01*
X002800Y017300D01*
X002800Y014900D01*
X000600Y014900D01*
X000600Y002800D01*
X002800Y002800D01*
X002800Y002795D02*
X017300Y002795D01*
X017300Y002953D02*
X000600Y002953D01*
X000600Y003112D02*
X017300Y003112D01*
X017300Y003270D02*
X000600Y003270D01*
X000600Y003429D02*
X017300Y003429D01*
X017300Y003587D02*
X000600Y003587D01*
X000600Y003746D02*
X017300Y003746D01*
X017300Y003904D02*
X000600Y003904D01*
X000600Y004063D02*
X004610Y004063D01*
X004758Y003915D02*
X005242Y003915D01*
X005585Y004258D01*
X005585Y004742D01*
X005242Y005085D01*
X004758Y005085D01*
X004415Y004742D01*
X004415Y004258D01*
X004758Y003915D01*
X004452Y004221D02*
X000600Y004221D01*
X000600Y004380D02*
X004415Y004380D01*
X004415Y004538D02*
X000600Y004538D01*
X000600Y004697D02*
X003676Y004697D01*
X003758Y004615D02*
X004242Y004615D01*
X004585Y004958D01*
X004585Y005442D01*
X004242Y005785D01*
X003758Y005785D01*
X003415Y005442D01*
X003415Y004958D01*
X003758Y004615D01*
X003518Y004855D02*
X000600Y004855D01*
X000600Y005014D02*
X003415Y005014D01*
X003415Y005172D02*
X000600Y005172D01*
X000600Y005331D02*
X003415Y005331D01*
X003462Y005489D02*
X000600Y005489D01*
X000600Y005648D02*
X003620Y005648D01*
X004380Y005648D02*
X017300Y005648D01*
X017300Y005806D02*
X000600Y005806D01*
X000600Y005965D02*
X017300Y005965D01*
X017300Y006123D02*
X000600Y006123D01*
X000600Y006282D02*
X017300Y006282D01*
X017300Y006440D02*
X000600Y006440D01*
X000600Y006599D02*
X017300Y006599D01*
X017300Y006757D02*
X000600Y006757D01*
X000600Y006916D02*
X017300Y006916D01*
X017300Y007074D02*
X000600Y007074D01*
X000600Y007233D02*
X002268Y007233D01*
X002330Y007170D02*
X002770Y007170D01*
X003080Y007480D01*
X003080Y007920D01*
X002800Y008200D01*
X003080Y008480D01*
X003080Y008920D01*
X002800Y009200D01*
X003080Y009480D01*
X003080Y009920D01*
X002800Y010200D01*
X003080Y010480D01*
X003080Y010920D01*
X002800Y011200D01*
X003080Y011480D01*
X003080Y011920D01*
X002770Y012230D01*
X002330Y012230D01*
X002020Y011920D01*
X002020Y011480D01*
X002300Y011200D01*
X002020Y010920D01*
X002020Y010480D01*
X002300Y010200D01*
X002020Y009920D01*
X002020Y009480D01*
X002300Y009200D01*
X002020Y008920D01*
X002020Y008480D01*
X002300Y008200D01*
X002020Y007920D01*
X002020Y007480D01*
X002330Y007170D01*
X002109Y007391D02*
X000600Y007391D01*
X000600Y007550D02*
X002020Y007550D01*
X002020Y007708D02*
X000600Y007708D01*
X000600Y007867D02*
X002020Y007867D01*
X002125Y008025D02*
X000600Y008025D01*
X000600Y008184D02*
X002284Y008184D01*
X002158Y008342D02*
X000600Y008342D01*
X000600Y008501D02*
X002020Y008501D01*
X002020Y008659D02*
X000600Y008659D01*
X000600Y008818D02*
X002020Y008818D01*
X002076Y008976D02*
X000600Y008976D01*
X000600Y009135D02*
X002235Y009135D01*
X002207Y009293D02*
X000600Y009293D01*
X000600Y009452D02*
X002049Y009452D01*
X002020Y009610D02*
X000600Y009610D01*
X000600Y009769D02*
X002020Y009769D01*
X002027Y009927D02*
X000600Y009927D01*
X000600Y010086D02*
X002186Y010086D01*
X002256Y010244D02*
X000600Y010244D01*
X000600Y010403D02*
X002098Y010403D01*
X002020Y010561D02*
X000600Y010561D01*
X000600Y010720D02*
X002020Y010720D01*
X002020Y010878D02*
X000600Y010878D01*
X000600Y011037D02*
X002137Y011037D01*
X002295Y011195D02*
X000600Y011195D01*
X000600Y011354D02*
X002147Y011354D01*
X002020Y011512D02*
X000600Y011512D01*
X000600Y011671D02*
X002020Y011671D01*
X002020Y011829D02*
X000600Y011829D01*
X000600Y011988D02*
X002088Y011988D01*
X002246Y012146D02*
X000600Y012146D01*
X000600Y012305D02*
X017300Y012305D01*
X017300Y012463D02*
X000600Y012463D01*
X000600Y012622D02*
X017300Y012622D01*
X017300Y012780D02*
X000600Y012780D01*
X000600Y012939D02*
X017300Y012939D01*
X017300Y013097D02*
X000600Y013097D01*
X000600Y013256D02*
X013025Y013256D01*
X013022Y013258D02*
X013096Y013204D01*
X013177Y013162D01*
X013264Y013134D01*
X013354Y013120D01*
X013730Y013120D01*
X013730Y013630D01*
X013870Y013630D01*
X013870Y013770D01*
X013730Y013770D01*
X013730Y014280D01*
X013354Y014280D01*
X013264Y014266D01*
X013177Y014238D01*
X013096Y014196D01*
X013022Y014142D01*
X012958Y014078D01*
X012904Y014004D01*
X012862Y013923D01*
X012834Y013836D01*
X012824Y013770D01*
X013730Y013770D01*
X013730Y013630D01*
X012824Y013630D01*
X012834Y013564D01*
X012862Y013477D01*
X012904Y013396D01*
X012958Y013322D01*
X013022Y013258D01*
X012895Y013414D02*
X000600Y013414D01*
X000600Y013573D02*
X012833Y013573D01*
X012852Y013890D02*
X000600Y013890D01*
X000600Y014048D02*
X012936Y014048D01*
X013117Y014207D02*
X000600Y014207D01*
X000600Y014365D02*
X014343Y014365D01*
X014325Y014383D02*
X014483Y014225D01*
X014689Y014140D01*
X014911Y014140D01*
X015117Y014225D01*
X015275Y014383D01*
X015360Y014589D01*
X015360Y014811D01*
X015275Y015017D01*
X015117Y015175D01*
X014911Y015260D01*
X014689Y015260D01*
X014483Y015175D01*
X014325Y015017D01*
X014240Y014811D01*
X014240Y014589D01*
X014325Y014383D01*
X014336Y014266D02*
X014246Y014280D01*
X013870Y014280D01*
X013870Y013770D01*
X014776Y013770D01*
X014766Y013836D01*
X014738Y013923D01*
X014696Y014004D01*
X014642Y014078D01*
X014578Y014142D01*
X014504Y014196D01*
X014423Y014238D01*
X014336Y014266D01*
X014483Y014207D02*
X014528Y014207D01*
X014664Y014048D02*
X014936Y014048D01*
X014958Y014078D02*
X014904Y014004D01*
X014862Y013923D01*
X014834Y013836D01*
X014824Y013770D01*
X015730Y013770D01*
X015730Y014280D01*
X015354Y014280D01*
X015264Y014266D01*
X015177Y014238D01*
X015096Y014196D01*
X015022Y014142D01*
X014958Y014078D01*
X015072Y014207D02*
X015117Y014207D01*
X015257Y014365D02*
X017300Y014365D01*
X017300Y014207D02*
X016483Y014207D01*
X016504Y014196D02*
X016423Y014238D01*
X016336Y014266D01*
X016246Y014280D01*
X015870Y014280D01*
X015870Y013770D01*
X015730Y013770D01*
X015730Y013630D01*
X015870Y013630D01*
X015870Y013770D01*
X016776Y013770D01*
X016766Y013836D01*
X016738Y013923D01*
X016696Y014004D01*
X016642Y014078D01*
X016578Y014142D01*
X016504Y014196D01*
X016664Y014048D02*
X017300Y014048D01*
X017300Y013890D02*
X016748Y013890D01*
X016776Y013630D02*
X015870Y013630D01*
X015870Y013120D01*
X016246Y013120D01*
X016336Y013134D01*
X016423Y013162D01*
X016504Y013204D01*
X016578Y013258D01*
X016642Y013322D01*
X016696Y013396D01*
X016738Y013477D01*
X016766Y013564D01*
X016776Y013630D01*
X016767Y013573D02*
X017300Y013573D01*
X017300Y013731D02*
X015870Y013731D01*
X015730Y013731D02*
X013870Y013731D01*
X013870Y013630D02*
X014776Y013630D01*
X014766Y013564D01*
X014738Y013477D01*
X014696Y013396D01*
X014642Y013322D01*
X014578Y013258D01*
X014504Y013204D01*
X014423Y013162D01*
X014336Y013134D01*
X014246Y013120D01*
X013870Y013120D01*
X013870Y013630D01*
X013870Y013573D02*
X013730Y013573D01*
X013730Y013731D02*
X000600Y013731D01*
X000600Y014524D02*
X014267Y014524D01*
X014240Y014682D02*
X000600Y014682D01*
X000600Y014841D02*
X014252Y014841D01*
X014318Y014999D02*
X002800Y014999D01*
X002800Y015158D02*
X013193Y015158D01*
X013177Y015162D02*
X013264Y015134D01*
X013354Y015120D01*
X013730Y015120D01*
X013730Y015630D01*
X013870Y015630D01*
X013870Y015770D01*
X013730Y015770D01*
X013730Y016280D01*
X013354Y016280D01*
X013264Y016266D01*
X013177Y016238D01*
X013096Y016196D01*
X013022Y016142D01*
X012958Y016078D01*
X012904Y016004D01*
X012862Y015923D01*
X012834Y015836D01*
X012824Y015770D01*
X013730Y015770D01*
X013730Y015630D01*
X012824Y015630D01*
X012834Y015564D01*
X012862Y015477D01*
X012904Y015396D01*
X012958Y015322D01*
X013022Y015258D01*
X013096Y015204D01*
X013177Y015162D01*
X012964Y015316D02*
X002800Y015316D01*
X002800Y015475D02*
X012864Y015475D01*
X012827Y015792D02*
X002800Y015792D01*
X002800Y015950D02*
X012876Y015950D01*
X012988Y016109D02*
X002800Y016109D01*
X002800Y016267D02*
X013272Y016267D01*
X013730Y016267D02*
X013870Y016267D01*
X013870Y016280D02*
X013870Y015770D01*
X014776Y015770D01*
X014766Y015836D01*
X014738Y015923D01*
X014696Y016004D01*
X014642Y016078D01*
X014578Y016142D01*
X014504Y016196D01*
X014423Y016238D01*
X014336Y016266D01*
X014246Y016280D01*
X013870Y016280D01*
X013870Y016109D02*
X013730Y016109D01*
X013730Y015950D02*
X013870Y015950D01*
X013870Y015792D02*
X013730Y015792D01*
X013730Y015633D02*
X002800Y015633D01*
X002800Y016426D02*
X017300Y016426D01*
X017300Y016584D02*
X002800Y016584D01*
X002800Y016743D02*
X017300Y016743D01*
X017300Y016901D02*
X002800Y016901D01*
X002800Y017060D02*
X017300Y017060D01*
X017300Y017218D02*
X002800Y017218D01*
X003430Y012230D02*
X003120Y011920D01*
X003120Y011480D01*
X003400Y011200D01*
X003120Y010920D01*
X003120Y010480D01*
X003386Y010214D01*
X003100Y009928D01*
X003100Y009720D01*
X003630Y009720D01*
X003630Y009680D01*
X003100Y009680D01*
X003100Y009472D01*
X003386Y009186D01*
X003120Y008920D01*
X003120Y008480D01*
X003400Y008200D01*
X003120Y007920D01*
X003120Y007480D01*
X003430Y007170D01*
X003870Y007170D01*
X004180Y007480D01*
X004180Y007920D01*
X003900Y008200D01*
X004180Y008480D01*
X004180Y008920D01*
X003914Y009186D01*
X004200Y009472D01*
X004200Y009680D01*
X003670Y009680D01*
X003670Y009720D01*
X004200Y009720D01*
X004200Y009928D01*
X003914Y010214D01*
X004180Y010480D01*
X004180Y010920D01*
X003900Y011200D01*
X004180Y011480D01*
X004180Y011920D01*
X003870Y012230D01*
X003430Y012230D01*
X003346Y012146D02*
X002854Y012146D01*
X003012Y011988D02*
X003188Y011988D01*
X003120Y011829D02*
X003080Y011829D01*
X003080Y011671D02*
X003120Y011671D01*
X003120Y011512D02*
X003080Y011512D01*
X002953Y011354D02*
X003247Y011354D01*
X003395Y011195D02*
X002805Y011195D01*
X002963Y011037D02*
X003237Y011037D01*
X003120Y010878D02*
X003080Y010878D01*
X003080Y010720D02*
X003120Y010720D01*
X003120Y010561D02*
X003080Y010561D01*
X003002Y010403D02*
X003198Y010403D01*
X003356Y010244D02*
X002844Y010244D01*
X002914Y010086D02*
X003258Y010086D01*
X003100Y009927D02*
X003073Y009927D01*
X003080Y009769D02*
X003100Y009769D01*
X003100Y009610D02*
X003080Y009610D01*
X003051Y009452D02*
X003121Y009452D01*
X003279Y009293D02*
X002893Y009293D01*
X002865Y009135D02*
X003335Y009135D01*
X003176Y008976D02*
X003024Y008976D01*
X003080Y008818D02*
X003120Y008818D01*
X003120Y008659D02*
X003080Y008659D01*
X003080Y008501D02*
X003120Y008501D01*
X003258Y008342D02*
X002942Y008342D01*
X002816Y008184D02*
X003384Y008184D01*
X003225Y008025D02*
X002975Y008025D01*
X003080Y007867D02*
X003120Y007867D01*
X003120Y007708D02*
X003080Y007708D01*
X003080Y007550D02*
X003120Y007550D01*
X003209Y007391D02*
X002991Y007391D01*
X002832Y007233D02*
X003368Y007233D01*
X003932Y007233D02*
X017300Y007233D01*
X017300Y007391D02*
X004091Y007391D01*
X004180Y007550D02*
X017300Y007550D01*
X017300Y007708D02*
X004180Y007708D01*
X004180Y007867D02*
X017300Y007867D01*
X017300Y008025D02*
X004075Y008025D01*
X003916Y008184D02*
X017300Y008184D01*
X017300Y008342D02*
X004042Y008342D01*
X004180Y008501D02*
X017300Y008501D01*
X017300Y008659D02*
X004180Y008659D01*
X004180Y008818D02*
X017300Y008818D01*
X017300Y008976D02*
X004124Y008976D01*
X003965Y009135D02*
X017300Y009135D01*
X017300Y009293D02*
X004021Y009293D01*
X004179Y009452D02*
X017300Y009452D01*
X017300Y009610D02*
X004200Y009610D01*
X004200Y009769D02*
X017300Y009769D01*
X017300Y009927D02*
X004200Y009927D01*
X004042Y010086D02*
X017300Y010086D01*
X017300Y010244D02*
X003944Y010244D01*
X004102Y010403D02*
X017300Y010403D01*
X017300Y010561D02*
X004180Y010561D01*
X004180Y010720D02*
X017300Y010720D01*
X017300Y010878D02*
X004180Y010878D01*
X004063Y011037D02*
X017300Y011037D01*
X017300Y011195D02*
X013522Y011195D01*
X013442Y011115D02*
X013785Y011458D01*
X013785Y011942D01*
X013442Y012285D01*
X012958Y012285D01*
X012615Y011942D01*
X012615Y011458D01*
X012958Y011115D01*
X013442Y011115D01*
X013681Y011354D02*
X017300Y011354D01*
X017300Y011512D02*
X013785Y011512D01*
X013785Y011671D02*
X017300Y011671D01*
X017300Y011829D02*
X013785Y011829D01*
X013740Y011988D02*
X017300Y011988D01*
X017300Y012146D02*
X013581Y012146D01*
X012819Y012146D02*
X003954Y012146D01*
X004112Y011988D02*
X012660Y011988D01*
X012615Y011829D02*
X004180Y011829D01*
X004180Y011671D02*
X012615Y011671D01*
X012615Y011512D02*
X004180Y011512D01*
X004053Y011354D02*
X012719Y011354D01*
X012878Y011195D02*
X003905Y011195D01*
X004538Y005489D02*
X017300Y005489D01*
X017300Y005331D02*
X004585Y005331D01*
X004585Y005172D02*
X017300Y005172D01*
X017300Y005014D02*
X005314Y005014D01*
X005472Y004855D02*
X017300Y004855D01*
X017300Y004697D02*
X005585Y004697D01*
X005585Y004538D02*
X017300Y004538D01*
X017300Y004380D02*
X005585Y004380D01*
X005548Y004221D02*
X017300Y004221D01*
X017300Y004063D02*
X005390Y004063D01*
X004415Y004697D02*
X004324Y004697D01*
X004482Y004855D02*
X004528Y004855D01*
X004585Y005014D02*
X004686Y005014D01*
X002800Y002636D02*
X017300Y002636D01*
X017300Y002478D02*
X002800Y002478D01*
X002800Y002319D02*
X017300Y002319D01*
X017300Y002161D02*
X002800Y002161D01*
X002800Y002002D02*
X017300Y002002D01*
X017300Y001844D02*
X002800Y001844D01*
X002800Y001685D02*
X017300Y001685D01*
X017300Y001527D02*
X002800Y001527D01*
X002800Y001368D02*
X017300Y001368D01*
X017300Y001210D02*
X002800Y001210D01*
X002800Y001051D02*
X017300Y001051D01*
X017300Y000893D02*
X002800Y000893D01*
X002800Y000734D02*
X017300Y000734D01*
X017300Y000576D02*
X002800Y000576D01*
X002800Y000417D02*
X017300Y000417D01*
X015730Y013120D02*
X015354Y013120D01*
X015264Y013134D01*
X015177Y013162D01*
X015096Y013204D01*
X015022Y013258D01*
X014958Y013322D01*
X014904Y013396D01*
X014862Y013477D01*
X014834Y013564D01*
X014824Y013630D01*
X015730Y013630D01*
X015730Y013120D01*
X015730Y013256D02*
X015870Y013256D01*
X015870Y013414D02*
X015730Y013414D01*
X015730Y013573D02*
X015870Y013573D01*
X015870Y013890D02*
X015730Y013890D01*
X015730Y014048D02*
X015870Y014048D01*
X015870Y014207D02*
X015730Y014207D01*
X015333Y014524D02*
X017300Y014524D01*
X017300Y014682D02*
X015360Y014682D01*
X015348Y014841D02*
X017300Y014841D01*
X017300Y014999D02*
X015282Y014999D01*
X015264Y015134D02*
X015354Y015120D01*
X015730Y015120D01*
X015730Y015630D01*
X015870Y015630D01*
X015870Y015770D01*
X015730Y015770D01*
X015730Y016280D01*
X015354Y016280D01*
X015264Y016266D01*
X015177Y016238D01*
X015096Y016196D01*
X015022Y016142D01*
X014958Y016078D01*
X014904Y016004D01*
X014862Y015923D01*
X014834Y015836D01*
X014824Y015770D01*
X015730Y015770D01*
X015730Y015630D01*
X014824Y015630D01*
X014834Y015564D01*
X014862Y015477D01*
X014904Y015396D01*
X014958Y015322D01*
X015022Y015258D01*
X015096Y015204D01*
X015177Y015162D01*
X015264Y015134D01*
X015193Y015158D02*
X015134Y015158D01*
X014964Y015316D02*
X014636Y015316D01*
X014642Y015322D02*
X014696Y015396D01*
X014738Y015477D01*
X014766Y015564D01*
X014776Y015630D01*
X013870Y015630D01*
X013870Y015120D01*
X014246Y015120D01*
X014336Y015134D01*
X014423Y015162D01*
X014504Y015204D01*
X014578Y015258D01*
X014642Y015322D01*
X014736Y015475D02*
X014864Y015475D01*
X014827Y015792D02*
X014773Y015792D01*
X014724Y015950D02*
X014876Y015950D01*
X014988Y016109D02*
X014612Y016109D01*
X014328Y016267D02*
X015272Y016267D01*
X015730Y016267D02*
X015870Y016267D01*
X015870Y016280D02*
X015870Y015770D01*
X016776Y015770D01*
X016766Y015836D01*
X016738Y015923D01*
X016696Y016004D01*
X016642Y016078D01*
X016578Y016142D01*
X016504Y016196D01*
X016423Y016238D01*
X016336Y016266D01*
X016246Y016280D01*
X015870Y016280D01*
X015870Y016109D02*
X015730Y016109D01*
X015730Y015950D02*
X015870Y015950D01*
X015870Y015792D02*
X015730Y015792D01*
X015730Y015633D02*
X013870Y015633D01*
X013870Y015475D02*
X013730Y015475D01*
X013730Y015316D02*
X013870Y015316D01*
X013870Y015158D02*
X013730Y015158D01*
X014407Y015158D02*
X014466Y015158D01*
X013870Y014207D02*
X013730Y014207D01*
X013730Y014048D02*
X013870Y014048D01*
X013870Y013890D02*
X013730Y013890D01*
X013730Y013414D02*
X013870Y013414D01*
X013870Y013256D02*
X013730Y013256D01*
X014575Y013256D02*
X015025Y013256D01*
X014895Y013414D02*
X014705Y013414D01*
X014767Y013573D02*
X014833Y013573D01*
X014852Y013890D02*
X014748Y013890D01*
X015730Y015158D02*
X015870Y015158D01*
X015870Y015120D02*
X016246Y015120D01*
X016336Y015134D01*
X016423Y015162D01*
X016504Y015204D01*
X016578Y015258D01*
X016642Y015322D01*
X016696Y015396D01*
X016738Y015477D01*
X016766Y015564D01*
X016776Y015630D01*
X015870Y015630D01*
X015870Y015120D01*
X015870Y015316D02*
X015730Y015316D01*
X015730Y015475D02*
X015870Y015475D01*
X015870Y015633D02*
X017300Y015633D01*
X017300Y015475D02*
X016736Y015475D01*
X016636Y015316D02*
X017300Y015316D01*
X017300Y015158D02*
X016407Y015158D01*
X016773Y015792D02*
X017300Y015792D01*
X017300Y015950D02*
X016724Y015950D01*
X016612Y016109D02*
X017300Y016109D01*
X017300Y016267D02*
X016328Y016267D01*
X016705Y013414D02*
X017300Y013414D01*
X017300Y013256D02*
X016575Y013256D01*
M02*
