%
M48
M72
T01C0.0276
T02C0.0400
T03C0.0600
T04C0.1300
%
T01
X5000Y11700
T02
X3650Y11700
X3650Y10700
X3650Y9700
X3650Y8700
X3650Y7700
X2550Y7700
X2550Y8700
X2550Y9700
X2550Y10700
X2550Y11700
X4000Y5200
X5000Y4500
X13200Y11700
T03
X13800Y13700
X14800Y14700
X13800Y15700
X15800Y15700
X15800Y13700
T04
X1600Y1600
X1600Y16100
M30
