G75*
G70*
%OFA0B0*%
%FSLAX24Y24*%
%IPPOS*%
%LPD*%
%AMOC8*
5,1,8,0,0,1.08239X$1,22.5*
%
%ADD10C,0.0030*%
%ADD11C,0.0080*%
%ADD12C,0.0060*%
%ADD13C,0.0040*%
%ADD14C,0.0010*%
%ADD15C,0.0050*%
%ADD16C,0.0000*%
D10*
X003394Y014092D02*
X003456Y014092D01*
X003517Y014153D01*
X003517Y014462D01*
X003270Y014462D02*
X003270Y014277D01*
X003332Y014215D01*
X003517Y014215D01*
X003149Y014462D02*
X003087Y014462D01*
X002964Y014338D01*
X002842Y014338D02*
X002657Y014338D01*
X002595Y014277D01*
X002657Y014215D01*
X002842Y014215D01*
X002842Y014400D01*
X002780Y014462D01*
X002657Y014462D01*
X002474Y014462D02*
X002474Y014215D01*
X002289Y014215D01*
X002227Y014277D01*
X002227Y014462D01*
X002105Y014462D02*
X002043Y014462D01*
X001920Y014338D01*
X001920Y014215D02*
X001920Y014462D01*
X001799Y014400D02*
X001737Y014462D01*
X001552Y014462D01*
X001552Y014585D02*
X001552Y014215D01*
X001737Y014215D01*
X001799Y014277D01*
X001799Y014400D01*
X001430Y014400D02*
X001430Y014338D01*
X001183Y014338D01*
X001183Y014277D02*
X001183Y014400D01*
X001245Y014462D01*
X001368Y014462D01*
X001430Y014400D01*
X001368Y014215D02*
X001245Y014215D01*
X001183Y014277D01*
X000938Y014400D02*
X000815Y014400D01*
X000815Y014215D02*
X000815Y014585D01*
X001062Y014585D01*
X000938Y014815D02*
X001062Y014938D01*
X001062Y015185D01*
X001245Y015062D02*
X001183Y015000D01*
X001183Y014877D01*
X001245Y014815D01*
X001368Y014815D01*
X001430Y014938D02*
X001183Y014938D01*
X001245Y015062D02*
X001368Y015062D01*
X001430Y015000D01*
X001430Y014938D01*
X001552Y014938D02*
X001675Y015062D01*
X001737Y015062D01*
X001859Y015000D02*
X001920Y015062D01*
X002105Y015062D01*
X002227Y015062D02*
X002289Y015062D01*
X002289Y014815D01*
X002350Y014815D02*
X002227Y014815D01*
X002105Y014877D02*
X002044Y014938D01*
X001920Y014938D01*
X001859Y015000D01*
X001859Y014815D02*
X002044Y014815D01*
X002105Y014877D01*
X002289Y015185D02*
X002289Y015247D01*
X002534Y015062D02*
X002472Y015000D01*
X002472Y014877D01*
X002534Y014815D01*
X002658Y014815D01*
X002719Y014877D01*
X002719Y015000D01*
X002658Y015062D01*
X002534Y015062D01*
X002841Y015062D02*
X002841Y014815D01*
X003088Y014815D02*
X003088Y015000D01*
X003026Y015062D01*
X002841Y015062D01*
X003577Y015062D02*
X003701Y015185D01*
X003701Y014815D01*
X003824Y014815D02*
X003577Y014815D01*
X003946Y014815D02*
X004007Y014815D01*
X004007Y014877D01*
X003946Y014877D01*
X003946Y014815D01*
X004130Y014877D02*
X004377Y015124D01*
X004377Y014877D01*
X004315Y014815D01*
X004192Y014815D01*
X004130Y014877D01*
X004130Y015124D01*
X004192Y015185D01*
X004315Y015185D01*
X004377Y015124D01*
X004437Y014585D02*
X004375Y014524D01*
X004375Y014277D01*
X004622Y014524D01*
X004622Y014277D01*
X004561Y014215D01*
X004437Y014215D01*
X004375Y014277D01*
X004254Y014215D02*
X004007Y014215D01*
X004254Y014462D01*
X004254Y014524D01*
X004192Y014585D01*
X004069Y014585D01*
X004007Y014524D01*
X004437Y014585D02*
X004561Y014585D01*
X004622Y014524D01*
X004744Y014462D02*
X004867Y014585D01*
X004867Y014215D01*
X004744Y014215D02*
X004991Y014215D01*
X005112Y014215D02*
X005359Y014462D01*
X005359Y014524D01*
X005297Y014585D01*
X005174Y014585D01*
X005112Y014524D01*
X005112Y014215D02*
X005359Y014215D01*
X005715Y015815D02*
X005962Y015815D01*
X006083Y015815D02*
X006207Y015815D01*
X006145Y015815D02*
X006145Y016062D01*
X006083Y016062D01*
X006145Y016185D02*
X006145Y016247D01*
X006329Y016062D02*
X006514Y016062D01*
X006576Y016000D01*
X006576Y015815D01*
X006697Y015815D02*
X006944Y016062D01*
X006697Y016062D02*
X006944Y015815D01*
X007434Y015815D02*
X007619Y015815D01*
X007681Y015877D01*
X007681Y015938D01*
X007619Y016000D01*
X007434Y016000D01*
X007619Y016000D02*
X007681Y016062D01*
X007681Y016124D01*
X007619Y016185D01*
X007434Y016185D01*
X007434Y015815D01*
X007802Y015815D02*
X007802Y016062D01*
X007926Y016062D02*
X007987Y016062D01*
X007926Y016062D02*
X007802Y015938D01*
X008109Y015938D02*
X008356Y015938D01*
X008356Y016000D01*
X008294Y016062D01*
X008171Y016062D01*
X008109Y016000D01*
X008109Y015877D01*
X008171Y015815D01*
X008294Y015815D01*
X008477Y015877D02*
X008539Y015938D01*
X008724Y015938D01*
X008724Y016000D02*
X008724Y015815D01*
X008539Y015815D01*
X008477Y015877D01*
X008539Y016062D02*
X008663Y016062D01*
X008724Y016000D01*
X008846Y015938D02*
X009031Y016062D01*
X009153Y016000D02*
X009153Y015877D01*
X009214Y015815D01*
X009338Y015815D01*
X009399Y015877D01*
X009399Y016000D01*
X009338Y016062D01*
X009214Y016062D01*
X009153Y016000D01*
X009031Y015815D02*
X008846Y015938D01*
X008846Y015815D02*
X008846Y016185D01*
X008737Y016615D02*
X008614Y016615D01*
X008676Y016615D02*
X008676Y016862D01*
X008614Y016862D01*
X008493Y016800D02*
X008493Y016615D01*
X008493Y016800D02*
X008431Y016862D01*
X008246Y016862D01*
X008246Y016615D01*
X008124Y016677D02*
X008124Y016985D01*
X007877Y016985D02*
X007877Y016677D01*
X007939Y016615D01*
X008063Y016615D01*
X008124Y016677D01*
X008676Y016985D02*
X008676Y017047D01*
X008860Y016862D02*
X008983Y016615D01*
X009106Y016862D01*
X009228Y016800D02*
X009290Y016862D01*
X009413Y016862D01*
X009475Y016800D01*
X009475Y016738D01*
X009228Y016738D01*
X009228Y016677D02*
X009228Y016800D01*
X009228Y016677D02*
X009290Y016615D01*
X009413Y016615D01*
X009596Y016615D02*
X009596Y016862D01*
X009596Y016738D02*
X009720Y016862D01*
X009781Y016862D01*
X009903Y016800D02*
X009965Y016862D01*
X010150Y016862D01*
X010271Y016862D02*
X010333Y016862D01*
X010333Y016615D01*
X010271Y016615D02*
X010395Y016615D01*
X010579Y016677D02*
X010640Y016615D01*
X010579Y016677D02*
X010579Y016924D01*
X010640Y016862D02*
X010517Y016862D01*
X010333Y016985D02*
X010333Y017047D01*
X010088Y016738D02*
X009965Y016738D01*
X009903Y016800D01*
X009903Y016615D02*
X010088Y016615D01*
X010150Y016677D01*
X010088Y016738D01*
X009951Y016124D02*
X009951Y015877D01*
X010013Y015815D01*
X009768Y015815D02*
X009768Y016062D01*
X009889Y016062D02*
X010013Y016062D01*
X009768Y015815D02*
X009583Y015815D01*
X009521Y015877D01*
X009521Y016062D01*
X010503Y016000D02*
X010688Y016000D01*
X010750Y015938D01*
X010750Y015877D01*
X010688Y015815D01*
X010503Y015815D01*
X010503Y016185D01*
X010688Y016185D01*
X010750Y016124D01*
X010750Y016062D01*
X010688Y016000D01*
X010871Y016000D02*
X010871Y015877D01*
X010933Y015815D01*
X011057Y015815D01*
X011118Y015877D01*
X011118Y016000D01*
X011057Y016062D01*
X010933Y016062D01*
X010871Y016000D01*
X011240Y015877D02*
X011301Y015938D01*
X011487Y015938D01*
X011487Y016000D02*
X011487Y015815D01*
X011301Y015815D01*
X011240Y015877D01*
X011301Y016062D02*
X011425Y016062D01*
X011487Y016000D01*
X011608Y015938D02*
X011731Y016062D01*
X011793Y016062D01*
X011915Y016000D02*
X011977Y016062D01*
X012162Y016062D01*
X012162Y016185D02*
X012162Y015815D01*
X011977Y015815D01*
X011915Y015877D01*
X011915Y016000D01*
X011608Y016062D02*
X011608Y015815D01*
X011623Y016615D02*
X011499Y016615D01*
X011561Y016615D02*
X011561Y016985D01*
X011499Y016985D02*
X011623Y016985D01*
X011745Y016985D02*
X011745Y016615D01*
X011992Y016615D01*
X012113Y016615D02*
X012360Y016615D01*
X012481Y016615D02*
X012728Y016615D01*
X012605Y016800D02*
X012481Y016800D01*
X012481Y016985D02*
X012481Y016615D01*
X012236Y016800D02*
X012113Y016800D01*
X012113Y016985D02*
X012113Y016615D01*
X011868Y016800D02*
X011745Y016800D01*
X011745Y016985D02*
X011992Y016985D01*
X012113Y016985D02*
X012360Y016985D01*
X012481Y016985D02*
X012728Y016985D01*
X011009Y016862D02*
X011009Y016553D01*
X010948Y016492D01*
X010886Y016492D01*
X010824Y016615D02*
X011009Y016615D01*
X010824Y016615D02*
X010762Y016677D01*
X010762Y016862D01*
X007388Y016862D02*
X007202Y016862D01*
X007141Y016800D01*
X007202Y016738D01*
X007326Y016738D01*
X007388Y016677D01*
X007326Y016615D01*
X007141Y016615D01*
X006834Y016615D02*
X006834Y016862D01*
X006957Y016862D02*
X007019Y016862D01*
X006957Y016862D02*
X006834Y016738D01*
X006712Y016738D02*
X006465Y016738D01*
X006465Y016677D02*
X006465Y016800D01*
X006527Y016862D01*
X006651Y016862D01*
X006712Y016800D01*
X006712Y016738D01*
X006651Y016615D02*
X006527Y016615D01*
X006465Y016677D01*
X006344Y016615D02*
X006159Y016615D01*
X006097Y016677D01*
X006097Y016800D01*
X006159Y016862D01*
X006344Y016862D01*
X006344Y016553D01*
X006282Y016492D01*
X006221Y016492D01*
X005975Y016615D02*
X005913Y016677D01*
X005913Y016924D01*
X005852Y016862D02*
X005975Y016862D01*
X005730Y016862D02*
X005730Y016615D01*
X005545Y016615D01*
X005483Y016677D01*
X005483Y016862D01*
X005362Y016924D02*
X005362Y016800D01*
X005300Y016738D01*
X005115Y016738D01*
X005115Y016615D02*
X005115Y016985D01*
X005300Y016985D01*
X005362Y016924D01*
X005238Y016738D02*
X005362Y016615D01*
X005715Y016185D02*
X005715Y015815D01*
X006329Y015815D02*
X006329Y016062D01*
X002964Y014462D02*
X002964Y014215D01*
X001552Y014815D02*
X001552Y015062D01*
X000938Y014815D02*
X000815Y014938D01*
X000815Y015185D01*
D11*
X001328Y013676D02*
X004832Y013676D01*
X004872Y013676D02*
X004872Y005724D01*
X001328Y005724D01*
X001328Y008834D01*
X001919Y008834D01*
X001919Y010566D01*
X001328Y010566D01*
X001328Y013676D01*
X002007Y011950D02*
X002007Y011450D01*
X001328Y010566D02*
X001328Y008834D01*
X005890Y015309D02*
X012110Y015309D01*
X013200Y016300D02*
X013200Y013100D01*
X016400Y013100D01*
X016400Y016300D01*
X013200Y016300D01*
X014100Y011450D02*
X016100Y011450D01*
X016100Y000950D01*
X014100Y000950D01*
X014100Y011450D01*
X012110Y001091D02*
X005890Y001091D01*
D12*
X005200Y003950D02*
X004800Y003950D01*
X004450Y004300D01*
X004450Y004700D01*
X004800Y005050D01*
X005200Y005050D01*
X005550Y004700D01*
X005550Y004300D01*
X005200Y003950D01*
X004200Y004650D02*
X003800Y004650D01*
X003450Y005000D01*
X003450Y005400D01*
X003800Y005750D01*
X004200Y005750D01*
X004550Y005400D01*
X004550Y005000D01*
X004200Y004650D01*
X012650Y011500D02*
X013000Y011150D01*
X013400Y011150D01*
X013750Y011500D01*
X013750Y011900D01*
X013400Y012250D01*
X013000Y012250D01*
X012650Y011900D01*
X012650Y011500D01*
X007278Y014265D02*
X007278Y014692D01*
X007278Y014478D02*
X006638Y014478D01*
X006851Y014265D01*
D13*
X008096Y009067D02*
X008020Y008990D01*
X008020Y008836D01*
X008096Y008760D01*
X008020Y008606D02*
X008480Y008606D01*
X008480Y008760D02*
X008173Y009067D01*
X008096Y009067D01*
X008480Y009067D02*
X008480Y008760D01*
X008250Y008606D02*
X008250Y008299D01*
X008480Y008299D02*
X008020Y008299D01*
X008020Y008146D02*
X008327Y007839D01*
X008250Y007916D02*
X008480Y008146D01*
X008480Y007839D02*
X008020Y007839D01*
X008250Y007685D02*
X008250Y007378D01*
X008480Y007225D02*
X008020Y006918D01*
X008020Y006765D02*
X008480Y006458D01*
X008480Y006304D02*
X008020Y005997D01*
X008250Y005844D02*
X008250Y005537D01*
X008403Y005383D02*
X008096Y005383D01*
X008020Y005307D01*
X008020Y005076D01*
X008480Y005076D01*
X008480Y005307D01*
X008403Y005383D01*
X008480Y004923D02*
X008020Y004616D01*
X008096Y004463D02*
X008250Y004463D01*
X008327Y004386D01*
X008327Y004156D01*
X008480Y004156D02*
X008020Y004156D01*
X008020Y004386D01*
X008096Y004463D01*
X008327Y004309D02*
X008480Y004463D01*
X008480Y004616D02*
X008020Y004923D01*
X008480Y005997D02*
X008020Y006304D01*
X008020Y006458D02*
X008480Y006765D01*
X008480Y006918D02*
X008020Y007225D01*
X010020Y007992D02*
X010020Y008146D01*
X010020Y008069D02*
X010480Y008069D01*
X010480Y007992D02*
X010480Y008146D01*
X010403Y008299D02*
X010480Y008376D01*
X010480Y008529D01*
X010403Y008606D01*
X010480Y008760D02*
X010480Y009067D01*
X010480Y008913D02*
X010020Y008913D01*
X010173Y008760D01*
X010096Y008606D02*
X010020Y008529D01*
X010020Y008376D01*
X010096Y008299D01*
X010403Y008299D01*
X014020Y011620D02*
X014020Y012127D01*
X014274Y012381D01*
X014527Y012127D01*
X014527Y011620D01*
X014757Y011620D02*
X015137Y011620D01*
X015264Y011747D01*
X015264Y012254D01*
X015137Y012381D01*
X014757Y012381D01*
X014757Y011620D01*
X014527Y012000D02*
X014020Y012000D01*
X015493Y011620D02*
X015874Y011620D01*
X016000Y011747D01*
X016000Y012254D01*
X015874Y012381D01*
X015493Y012381D01*
X015493Y011620D01*
X016230Y011620D02*
X016230Y012381D01*
X016610Y012381D01*
X016737Y012254D01*
X016737Y012000D01*
X016610Y011874D01*
X016230Y011874D01*
X016483Y011874D02*
X016737Y011620D01*
X015480Y009803D02*
X014719Y009803D01*
X014719Y009550D02*
X014719Y010057D01*
X014846Y009320D02*
X014719Y009193D01*
X014719Y008940D01*
X014846Y008813D01*
X014973Y008813D01*
X015100Y008940D01*
X015100Y009193D01*
X015226Y009320D01*
X015353Y009320D01*
X015480Y009193D01*
X015480Y008940D01*
X015353Y008813D01*
X015480Y008584D02*
X014719Y008584D01*
X014973Y008330D01*
X014719Y008076D01*
X015480Y008076D01*
X015353Y007847D02*
X015480Y007720D01*
X015480Y007467D01*
X015353Y007340D01*
X014846Y007847D01*
X015353Y007847D01*
X014846Y007847D02*
X014719Y007720D01*
X014719Y007467D01*
X014846Y007340D01*
X015353Y007340D01*
X015480Y007110D02*
X015480Y006603D01*
X015480Y006857D02*
X014719Y006857D01*
X014973Y006603D01*
X015100Y006374D02*
X015100Y005993D01*
X014973Y005867D01*
X014846Y005867D01*
X014719Y005993D01*
X014719Y006247D01*
X014846Y006374D01*
X015353Y006374D01*
X015480Y006247D01*
X015480Y005993D01*
X015353Y005867D01*
X015480Y005637D02*
X015480Y005130D01*
X015480Y004900D02*
X015480Y004393D01*
X014973Y004900D01*
X014846Y004900D01*
X014719Y004774D01*
X014719Y004520D01*
X014846Y004393D01*
X014719Y004164D02*
X014719Y003657D01*
X014846Y003427D02*
X014719Y003300D01*
X014719Y003047D01*
X014846Y002920D01*
X015353Y002920D01*
X015480Y003047D01*
X015480Y003300D01*
X015353Y003427D01*
X015480Y003910D02*
X014719Y003910D01*
X014973Y005130D02*
X014719Y005383D01*
X015480Y005383D01*
X015647Y016420D02*
X015647Y017181D01*
X015900Y017181D02*
X015393Y017181D01*
X015164Y017181D02*
X015164Y016420D01*
X014657Y017181D01*
X014657Y016420D01*
X014427Y016420D02*
X014427Y016927D01*
X014174Y017181D01*
X013920Y016927D01*
X013920Y016420D01*
X013920Y016800D02*
X014427Y016800D01*
D14*
X003528Y013930D02*
X003528Y013880D01*
X003503Y013855D01*
X003428Y013855D01*
X003428Y013805D02*
X003428Y013955D01*
X003503Y013955D01*
X003528Y013930D01*
X003478Y013855D02*
X003528Y013805D01*
X003381Y013805D02*
X003281Y013805D01*
X003281Y013955D01*
X003381Y013955D01*
X003331Y013880D02*
X003281Y013880D01*
X003234Y013830D02*
X003234Y013930D01*
X003209Y013955D01*
X003134Y013955D01*
X003134Y013805D01*
X003209Y013805D01*
X003234Y013830D01*
X003086Y013805D02*
X003086Y013905D01*
X003036Y013955D01*
X002986Y013905D01*
X002986Y013805D01*
X002939Y013805D02*
X002839Y013805D01*
X002839Y013955D01*
X002939Y013955D01*
X002986Y013880D02*
X003086Y013880D01*
X002889Y013880D02*
X002839Y013880D01*
X002792Y013880D02*
X002692Y013880D01*
X002644Y013880D02*
X002619Y013855D01*
X002544Y013855D01*
X002544Y013805D02*
X002544Y013955D01*
X002619Y013955D01*
X002644Y013930D01*
X002644Y013880D01*
X002692Y013805D02*
X002692Y013955D01*
X002792Y013955D02*
X002792Y013805D01*
X002497Y013880D02*
X002397Y013880D01*
X002350Y013880D02*
X002350Y013830D01*
X002325Y013805D01*
X002275Y013805D01*
X002250Y013830D01*
X002250Y013880D02*
X002300Y013905D01*
X002325Y013905D01*
X002350Y013880D01*
X002350Y013955D02*
X002250Y013955D01*
X002250Y013880D01*
X002202Y013805D02*
X002102Y013955D01*
X002055Y013930D02*
X002030Y013955D01*
X001980Y013955D01*
X001955Y013930D01*
X002055Y013930D02*
X002055Y013905D01*
X001955Y013805D01*
X002055Y013805D01*
X002102Y013805D02*
X002202Y013955D01*
D15*
X004525Y003525D02*
X004675Y003375D01*
X004825Y003525D01*
X004825Y003825D01*
X004985Y003825D02*
X005286Y003825D01*
X005136Y003825D02*
X005136Y003375D01*
X004525Y003525D02*
X004525Y003825D01*
X004106Y004075D02*
X004106Y004375D01*
X003956Y004525D01*
X003806Y004375D01*
X003806Y004075D01*
X003806Y004300D02*
X004106Y004300D01*
X003646Y004525D02*
X003346Y004525D01*
X003496Y004525D02*
X003496Y004075D01*
X003186Y004075D02*
X003186Y004375D01*
X003036Y004525D01*
X002885Y004375D01*
X002885Y004075D01*
X002725Y004150D02*
X002725Y004450D01*
X002650Y004525D01*
X002425Y004525D01*
X002425Y004075D01*
X002650Y004075D01*
X002725Y004150D01*
X002885Y004300D02*
X003186Y004300D01*
X012725Y012450D02*
X012800Y012375D01*
X012950Y012375D01*
X013025Y012450D01*
X013025Y012525D01*
X012950Y012600D01*
X012800Y012600D01*
X012725Y012675D01*
X012725Y012750D01*
X012800Y012825D01*
X012950Y012825D01*
X013025Y012750D01*
X013185Y012825D02*
X013336Y012825D01*
X013260Y012825D02*
X013260Y012375D01*
X013185Y012375D02*
X013336Y012375D01*
X013492Y012450D02*
X013567Y012375D01*
X013718Y012375D01*
X013793Y012450D01*
X013793Y012600D01*
X013642Y012600D01*
X013492Y012750D02*
X013492Y012450D01*
X013492Y012750D02*
X013567Y012825D01*
X013718Y012825D01*
X013793Y012750D01*
D16*
X013251Y011860D02*
X013253Y011858D01*
X013253Y011857D01*
X013251Y011855D01*
X013246Y011855D01*
X013244Y011852D02*
X013242Y011850D01*
X013238Y011850D01*
X013237Y011852D01*
X013244Y011858D01*
X013244Y011852D01*
X013246Y011850D02*
X013251Y011850D01*
X013253Y011852D01*
X013253Y011853D01*
X013251Y011855D01*
X013251Y011860D02*
X013246Y011860D01*
X013246Y011850D01*
X013244Y011858D02*
X013242Y011860D01*
X013238Y011860D01*
X013237Y011858D01*
X013237Y011852D01*
X013234Y011850D02*
X013228Y011850D01*
X013231Y011850D02*
X013231Y011860D01*
X013228Y011857D01*
X013225Y011858D02*
X013223Y011860D01*
X013220Y011860D01*
X013218Y011858D01*
X013218Y011857D01*
X013220Y011855D01*
X013223Y011855D01*
X013225Y011853D01*
X013225Y011852D01*
X013223Y011850D01*
X013220Y011850D01*
X013218Y011852D01*
X013216Y011852D02*
X013214Y011850D01*
X013211Y011850D01*
X013209Y011852D01*
X013209Y011858D01*
X013211Y011860D01*
X013214Y011860D01*
X013216Y011858D01*
X013207Y011860D02*
X013207Y011850D01*
X013200Y011850D02*
X013200Y011860D01*
X013203Y011857D01*
X013207Y011860D01*
X005053Y004658D02*
X005053Y004657D01*
X005051Y004655D01*
X005046Y004655D01*
X005044Y004652D02*
X005042Y004650D01*
X005038Y004650D01*
X005037Y004652D01*
X005044Y004658D01*
X005044Y004652D01*
X005046Y004650D02*
X005051Y004650D01*
X005053Y004652D01*
X005053Y004653D01*
X005051Y004655D01*
X005053Y004658D02*
X005051Y004660D01*
X005046Y004660D01*
X005046Y004650D01*
X005044Y004658D02*
X005042Y004660D01*
X005038Y004660D01*
X005037Y004658D01*
X005037Y004652D01*
X005034Y004650D02*
X005028Y004650D01*
X005031Y004650D02*
X005031Y004660D01*
X005028Y004657D01*
X005025Y004658D02*
X005023Y004660D01*
X005020Y004660D01*
X005018Y004658D01*
X005018Y004657D01*
X005020Y004655D01*
X005023Y004655D01*
X005025Y004653D01*
X005025Y004652D01*
X005023Y004650D01*
X005020Y004650D01*
X005018Y004652D01*
X005016Y004652D02*
X005014Y004650D01*
X005011Y004650D01*
X005009Y004652D01*
X005009Y004658D01*
X005011Y004660D01*
X005014Y004660D01*
X005016Y004658D01*
X005007Y004660D02*
X005007Y004650D01*
X005000Y004650D02*
X005000Y004660D01*
X005003Y004657D01*
X005007Y004660D01*
X004053Y005352D02*
X004051Y005350D01*
X004046Y005350D01*
X004046Y005360D01*
X004051Y005360D01*
X004053Y005358D01*
X004053Y005357D01*
X004051Y005355D01*
X004046Y005355D01*
X004044Y005352D02*
X004042Y005350D01*
X004038Y005350D01*
X004037Y005352D01*
X004044Y005358D01*
X004044Y005352D01*
X004044Y005358D02*
X004042Y005360D01*
X004038Y005360D01*
X004037Y005358D01*
X004037Y005352D01*
X004034Y005350D02*
X004028Y005350D01*
X004031Y005350D02*
X004031Y005360D01*
X004028Y005357D01*
X004025Y005358D02*
X004023Y005360D01*
X004020Y005360D01*
X004018Y005358D01*
X004018Y005357D01*
X004020Y005355D01*
X004023Y005355D01*
X004025Y005353D01*
X004025Y005352D01*
X004023Y005350D01*
X004020Y005350D01*
X004018Y005352D01*
X004016Y005352D02*
X004014Y005350D01*
X004011Y005350D01*
X004009Y005352D01*
X004009Y005358D01*
X004011Y005360D01*
X004014Y005360D01*
X004016Y005358D01*
X004007Y005360D02*
X004007Y005350D01*
X004000Y005350D02*
X004000Y005360D01*
X004003Y005357D01*
X004007Y005360D01*
X004051Y005355D02*
X004053Y005353D01*
X004053Y005352D01*
M02*
