G75*
G70*
%OFA0B0*%
%FSLAX24Y24*%
%IPPOS*%
%LPD*%
%AMOC8*
5,1,8,0,0,1.08239X$1,22.5*
%
%ADD10C,0.0000*%
%ADD11R,0.0700X0.0650*%
%ADD12R,0.0961X0.0445*%
%ADD13OC8,0.0740*%
%ADD14C,0.0800*%
%ADD15C,0.0800*%
%ADD16OC8,0.0850*%
%ADD17C,0.0320*%
%ADD18C,0.0100*%
%ADD19C,0.0500*%
%ADD20C,0.1030*%
%ADD21C,0.0160*%
%ADD22C,0.0400*%
%ADD23R,0.0476X0.0476*%
D10*
X000100Y000100D02*
X000100Y017600D01*
X017600Y017600D01*
X017600Y000100D01*
X000100Y000100D01*
X000950Y001600D02*
X000952Y001650D01*
X000958Y001700D01*
X000968Y001750D01*
X000981Y001798D01*
X000998Y001846D01*
X001019Y001892D01*
X001043Y001936D01*
X001071Y001978D01*
X001102Y002018D01*
X001136Y002055D01*
X001173Y002090D01*
X001212Y002121D01*
X001253Y002150D01*
X001297Y002175D01*
X001343Y002197D01*
X001390Y002215D01*
X001438Y002229D01*
X001487Y002240D01*
X001537Y002247D01*
X001587Y002250D01*
X001638Y002249D01*
X001688Y002244D01*
X001738Y002235D01*
X001786Y002223D01*
X001834Y002206D01*
X001880Y002186D01*
X001925Y002163D01*
X001968Y002136D01*
X002008Y002106D01*
X002046Y002073D01*
X002081Y002037D01*
X002114Y001998D01*
X002143Y001957D01*
X002169Y001914D01*
X002192Y001869D01*
X002211Y001822D01*
X002226Y001774D01*
X002238Y001725D01*
X002246Y001675D01*
X002250Y001625D01*
X002250Y001575D01*
X002246Y001525D01*
X002238Y001475D01*
X002226Y001426D01*
X002211Y001378D01*
X002192Y001331D01*
X002169Y001286D01*
X002143Y001243D01*
X002114Y001202D01*
X002081Y001163D01*
X002046Y001127D01*
X002008Y001094D01*
X001968Y001064D01*
X001925Y001037D01*
X001880Y001014D01*
X001834Y000994D01*
X001786Y000977D01*
X001738Y000965D01*
X001688Y000956D01*
X001638Y000951D01*
X001587Y000950D01*
X001537Y000953D01*
X001487Y000960D01*
X001438Y000971D01*
X001390Y000985D01*
X001343Y001003D01*
X001297Y001025D01*
X001253Y001050D01*
X001212Y001079D01*
X001173Y001110D01*
X001136Y001145D01*
X001102Y001182D01*
X001071Y001222D01*
X001043Y001264D01*
X001019Y001308D01*
X000998Y001354D01*
X000981Y001402D01*
X000968Y001450D01*
X000958Y001500D01*
X000952Y001550D01*
X000950Y001600D01*
X000950Y016100D02*
X000952Y016150D01*
X000958Y016200D01*
X000968Y016250D01*
X000981Y016298D01*
X000998Y016346D01*
X001019Y016392D01*
X001043Y016436D01*
X001071Y016478D01*
X001102Y016518D01*
X001136Y016555D01*
X001173Y016590D01*
X001212Y016621D01*
X001253Y016650D01*
X001297Y016675D01*
X001343Y016697D01*
X001390Y016715D01*
X001438Y016729D01*
X001487Y016740D01*
X001537Y016747D01*
X001587Y016750D01*
X001638Y016749D01*
X001688Y016744D01*
X001738Y016735D01*
X001786Y016723D01*
X001834Y016706D01*
X001880Y016686D01*
X001925Y016663D01*
X001968Y016636D01*
X002008Y016606D01*
X002046Y016573D01*
X002081Y016537D01*
X002114Y016498D01*
X002143Y016457D01*
X002169Y016414D01*
X002192Y016369D01*
X002211Y016322D01*
X002226Y016274D01*
X002238Y016225D01*
X002246Y016175D01*
X002250Y016125D01*
X002250Y016075D01*
X002246Y016025D01*
X002238Y015975D01*
X002226Y015926D01*
X002211Y015878D01*
X002192Y015831D01*
X002169Y015786D01*
X002143Y015743D01*
X002114Y015702D01*
X002081Y015663D01*
X002046Y015627D01*
X002008Y015594D01*
X001968Y015564D01*
X001925Y015537D01*
X001880Y015514D01*
X001834Y015494D01*
X001786Y015477D01*
X001738Y015465D01*
X001688Y015456D01*
X001638Y015451D01*
X001587Y015450D01*
X001537Y015453D01*
X001487Y015460D01*
X001438Y015471D01*
X001390Y015485D01*
X001343Y015503D01*
X001297Y015525D01*
X001253Y015550D01*
X001212Y015579D01*
X001173Y015610D01*
X001136Y015645D01*
X001102Y015682D01*
X001071Y015722D01*
X001043Y015764D01*
X001019Y015808D01*
X000998Y015854D01*
X000981Y015902D01*
X000968Y015950D01*
X000958Y016000D01*
X000952Y016050D01*
X000950Y016100D01*
D11*
X005950Y014700D03*
X005950Y013700D03*
X005950Y012700D03*
X005950Y011700D03*
X005950Y010700D03*
X005950Y009700D03*
X005950Y008700D03*
X005950Y007700D03*
X005950Y006700D03*
X005950Y005700D03*
X005950Y004700D03*
X005950Y003700D03*
X005950Y002700D03*
X005950Y001700D03*
X012050Y001700D03*
X012050Y002700D03*
X012050Y003700D03*
X012050Y004700D03*
X012050Y005700D03*
X012050Y006700D03*
X012050Y007700D03*
X012050Y008700D03*
X012050Y009700D03*
X012050Y010700D03*
X012050Y011700D03*
X012050Y012700D03*
X012050Y013700D03*
X012050Y014700D03*
D12*
X013407Y010700D03*
X013407Y009700D03*
X013407Y008700D03*
X013407Y007700D03*
X013407Y006700D03*
X013407Y005700D03*
X013407Y004700D03*
X013407Y003700D03*
X013407Y002700D03*
X013407Y001700D03*
X016793Y001700D03*
X016793Y002700D03*
X016793Y003700D03*
X016793Y004700D03*
X016793Y005700D03*
X016793Y006700D03*
X016793Y007700D03*
X016793Y008700D03*
X016793Y009700D03*
X016793Y010700D03*
D13*
X003650Y010700D03*
X003650Y009700D03*
X003650Y008700D03*
X003650Y007700D03*
X002550Y007700D03*
X002550Y008700D03*
X002550Y009700D03*
X002550Y010700D03*
X002550Y011700D03*
X003650Y011700D03*
D14*
X014800Y014700D03*
D15*
X014200Y015700D02*
X013400Y015700D01*
X015400Y015700D02*
X016200Y015700D01*
X016200Y013700D02*
X015400Y013700D01*
X014200Y013700D02*
X013400Y013700D01*
D16*
X013200Y011700D03*
X005000Y004500D03*
X004000Y005200D03*
D17*
X002550Y006700D02*
X002550Y007700D01*
X002550Y008700D02*
X001900Y008700D01*
X001900Y006000D01*
X004200Y003700D01*
X005950Y003700D01*
X005950Y002700D02*
X004200Y002700D01*
X001300Y005600D01*
X001300Y009700D01*
X002550Y009700D01*
X002550Y010700D02*
X000700Y010700D01*
X000700Y005400D01*
X004400Y001700D01*
X005950Y001700D01*
X005950Y006700D02*
X002550Y006700D01*
X005950Y011700D02*
X006100Y011700D01*
X012050Y010700D02*
X013407Y010700D01*
X013407Y009700D02*
X012050Y009700D01*
X012050Y008700D02*
X012000Y008700D01*
X012000Y008600D01*
X012100Y008600D01*
X012100Y008700D01*
X012050Y008700D01*
X012100Y008700D02*
X013407Y008700D01*
X013407Y007700D02*
X012050Y007700D01*
X012050Y006700D02*
X013407Y006700D01*
X013407Y005700D02*
X012050Y005700D01*
X012050Y004700D02*
X013407Y004700D01*
X013407Y003700D02*
X012050Y003700D01*
X012050Y002700D02*
X013407Y002700D01*
X013407Y001700D02*
X012050Y001700D01*
X016793Y001700D02*
X016793Y002700D01*
X016793Y003700D01*
X016793Y004700D01*
X016793Y005700D01*
X016793Y006700D01*
X016793Y007700D01*
X016793Y008700D01*
X016793Y009700D01*
X016793Y010700D01*
X016793Y013700D01*
X015800Y013700D01*
D18*
X012050Y008700D02*
X012100Y008600D01*
D19*
X012050Y011700D02*
X013200Y011700D01*
X013800Y013700D02*
X012050Y013700D01*
X005950Y013700D02*
X002600Y013700D01*
X002600Y011700D01*
X003600Y011700D02*
X003600Y012700D01*
X005950Y012700D01*
X005950Y010700D02*
X003650Y010700D01*
X003650Y008700D02*
X005950Y008700D01*
X005950Y007700D02*
X003650Y007700D01*
X004500Y005700D02*
X004000Y005200D01*
X004500Y005700D02*
X005950Y005700D01*
X005950Y004700D02*
X005200Y004700D01*
X005000Y004500D01*
D20*
X012050Y014700D02*
X014800Y014700D01*
D21*
X003650Y011700D02*
X003600Y011700D01*
X002600Y011700D02*
X002550Y011700D01*
D22*
X005000Y011700D02*
X005950Y011700D01*
D23*
X005000Y011700D03*
M02*
